<svg width="800" height="600" xmlns="http://www.w3.org/2000/svg">

 <g>
  <title>Layer 1</title>
  <path d="m300.5,196.5c1,0 -1,0 -5,0c-1,0 -3.15225,0.76537 -5,0c-1.30655,-0.5412 -2,-1 -4,-2c-2,-1 -4.07611,-1.61731 -5,-2c-1.30655,-0.5412 -3.59399,-2.513 -6,-4c-2.69,-1.66251 -5.186,-2.69255 -7,-4c-2.29453,-1.65381 -4.186,-2.69255 -6,-4c-2.29453,-1.65381 -3.34619,-3.70546 -5,-6c-1.30746,-1.814 -2.34619,-2.70546 -4,-5c-2.6149,-3.62799 -3.95517,-5.54915 -5,-9c-0.86935,-2.87128 -1,-4 -2,-6c-1,-2 -2.49345,-4.87856 -3,-8c-0.48055,-2.96126 -1.11586,-5.96384 -2,-9c-1.15277,-3.95868 -2.48625,-7.82375 -3,-10c-0.91901,-3.893 -0.5695,-7.133 -2,-11c-0.7758,-2.09718 -1.5695,-5.133 -3,-9c-0.7758,-2.09718 -3.48625,-2.82375 -4,-5c-0.4595,-1.9465 -1.07613,-3.61732 -2,-4c-1.30656,-0.5412 -1.29289,-2.70711 -2,-2c-0.70711,0.70711 0.69344,1.4588 2,2c0.92387,0.38268 0.29289,1.29289 1,2c0.70711,0.70711 2.29289,0.29289 3,1c0.70711,0.70711 1.4588,0.69344 2,2c0.38269,0.92388 1,1 2,2c1,1 1.09789,1.82443 3,3c1.70131,1.05146 2.69344,0.4588 4,1c0.92387,0.38268 1.29289,0.29289 2,1c0.70711,0.70711 2.69344,0.4588 4,1c0.92387,0.38268 1.87856,1.49346 5,2c1.97418,0.32037 4.04132,0.84723 8,2c3.03616,0.88413 7.31,1.33749 10,3c1.203,0.7435 2.69345,2.4588 4,3c0.92389,0.38268 2.07611,0.61732 3,1c1.30655,0.5412 2,3 3,4c1,1 2.1731,1.85274 3,3c1.30746,1.814 1.85272,4.1731 3,5c1.814,1.30745 2,2 3,3c1,1 2.1731,2.85274 3,4c1.30746,1.814 1.69254,3.186 3,5c0.8269,1.14726 1.4588,1.69344 2,3c0.38269,0.92387 0.69254,3.186 2,5c0.8269,1.14726 1.61731,3.07613 2,4c0.5412,1.30656 1.23462,2.15224 2,4c0.5412,1.30656 0.61731,2.07613 1,3c0.5412,1.30656 1,2 1,3l1,0l0,1" id="svg_3" stroke="#000" fill="#FFA9A2"/>
  <path d="m355.5,151.5c0,-5 0.43497,-8.01352 0,-15c-0.50098,-8.04668 -1.10541,-14.97438 -3,-23c-2.11823,-8.97292 -5.14774,-15.94341 -7,-21c-2.17538,-5.93867 -4.49347,-9.87856 -5,-13c-0.64072,-3.94835 -1,-7 -1,-9c0,-1 0,-3 0,-4c0,-1 -0.86935,-2.12872 0,-5c1.04483,-3.45084 3.3851,-5.37201 6,-9c2.48071,-3.44181 5.69254,-6.18601 7,-8c0.8269,-1.14727 2.69345,-2.45881 4,-3c0.92389,-0.38268 1.29291,-0.29289 2,-1c0.70709,-0.70711 2,-1 3,-1c1,0 2.14935,-0.52573 3,0c1.9021,1.17557 4.37134,7.74675 7,12c2.35114,3.80423 5,8 7,10c1,1 3.21167,2.71412 6,5c1.09366,0.8966 2.07611,1.61732 3,2c1.30655,0.5412 1.61731,2.07612 2,3c0.5412,1.30656 3,3 4,5c1,2 1.9335,5.01721 3,9c1.88312,7.03235 3,16 3,21c0,7 0,12 0,16c0,5 -2.49347,8.87856 -3,12c-0.32037,1.97418 -0.61731,4.07613 -1,5c-0.5412,1.30656 -2,3 -3,4c-1,1 -2,3 -2,4l-1,1l0,1l0,1" id="svg_13" stroke="#000" fill="#FABA6F"/>
  <path d="m423.5,155.5c1,0 2,0 3,0c1,0 2.69254,-2.186 4,-4c0.8269,-1.14726 2.41885,-2.41885 4,-4c1.58115,-1.58115 2.15225,-2.23463 4,-3c1.30655,-0.5412 2.29291,-0.29289 3,-1c0.70709,-0.70711 1,-1 2,-1c1,0 1.29291,-0.29289 2,-1c0.70709,-0.70711 2,0 3,0c1,0 2,0 3,0c1,0 2,0 3,0c1,0 2,0 3,0c1,0 1.69345,0.4588 3,1c1.84775,0.76537 3,1 5,1c1,0 3,1 5,2c2,1 2.82376,1.48625 5,2c0.97324,0.22975 2,1 4,1c1,0 1.69345,0.4588 3,1c0.92389,0.38269 1.90778,0.49623 6,1c1.98502,0.24437 3,0 5,0c1,0 3,0 5,0c1,0 3,0 4,0c1,0 2,0 3,0c1,0 2.69345,-0.4588 4,-1c0.92389,-0.38269 1.29291,-0.29289 2,-1c0.70709,-0.70711 2,0 3,0c1,0 2.07611,-0.61731 3,-1c1.30658,-0.5412 -1.15222,-1.76537 -3,-1c-1.30658,0.5412 -2.29291,2.29289 -3,3c-0.70709,0.70711 -1.1731,0.85274 -2,2c-1.30746,1.814 -2,3 -2,5c0,1 -1.49347,2.87856 -2,6c-0.48056,2.96126 -0.61066,6.15927 -2,9c-1.58411,3.23892 -2.4588,5.69344 -3,7c-0.76538,1.84776 -0.69254,3.186 -2,5c-0.8269,1.14726 -2.85272,3.1731 -4,4c-1.814,1.30745 -5.31,1.33749 -8,3c-1.203,0.7435 -3.87857,2.49345 -7,3c-3.94836,0.64073 -7.08026,0.31075 -10,1c-2.17624,0.51375 -6,1 -9,1c-4,0 -5,0 -7,0c-1,0 -2,0 -4,0c-1,0 -2,0 -3,0c-1,0 -1.69345,-1.4588 -3,-2c-1.84775,-0.76537 -4,-1 -5,-1c-2,0 -3,-1 -5,-1c-2,0 -3.82376,-1.48625 -6,-2c-0.97324,-0.22975 -2,0 -3,0l-1,0l-1,-1l-1,0" id="svg_14" stroke="#000" fill="#8B4D4B"/>
  <path d="m301.5,146.5c0,-1 0,-2 0,-4c0,-1 -0.29291,-1.29289 -1,-2c-1.41422,-1.41422 -1,-3 -1,-4c0,-1 0,-3 0,-4c0,-1 0,-2 0,-3c0,-3 -0.91901,-6.107 0,-10c0.51373,-2.17625 1.48627,-4.82375 2,-7c0.22977,-0.97325 0,-4 0,-7c0,-2 0,-5 0,-7c0,-3 -0.78986,-6.07844 -2,-9c-0.85571,-2.06586 -1.48627,-2.82375 -2,-5c-0.22977,-0.97325 -1.4588,-1.69344 -2,-3c-0.76538,-1.84776 -1,-3 -1,-4c0,-1 -1.4588,-1.69344 -2,-3c-0.38269,-0.92388 -0.30746,-1.814 1,0c2.48071,3.44181 6,7 10,11c2,2 3.70547,5.34619 6,7c1.814,1.30745 3.82376,3.48626 6,4c1.9465,0.4595 3.15225,1.23463 5,2c1.30655,0.5412 2.69345,1.4588 4,2c0.92389,0.38268 2.69345,1.4588 4,2c0.92389,0.38268 1.186,0.69255 3,2c1.14728,0.8269 3.41589,1.76108 5,5c1.38934,2.84072 3.4588,4.69344 4,6c0.38269,0.92388 0,2 1,2l0,1" id="svg_16" stroke="#000" fill="#BF7E96"/>
  <path d="m399.5,117.5c1,-2 3.41885,-2.41886 5,-4c1.58115,-1.58114 3.21167,-3.71412 6,-6c2.18735,-1.79319 4.08026,-3.31074 7,-4c2.17624,-0.51374 3,-2 4,-2c1,0 2,0 3,0c1,0 1.69345,0.4588 3,1c1.84775,0.76537 5,0 7,0c4,0 5.82376,0.48626 8,1c0.97324,0.22975 3.02249,0.36655 6,0c4.09222,-0.50378 7,-1 10,-2c3,-1 3.85272,-1.1731 5,-2c1.814,-1.30745 6.133,-1.5695 10,-3c2.09717,-0.77579 3.29291,-0.29289 4,-1c0.70709,-0.70711 -0.21179,-0.61541 -1,0c-3.24985,2.53741 -3.46872,7.53976 -5,15c-0.60321,2.93874 -2,6 -2,8c0,2 -1.48627,3.82375 -2,6c-0.4595,1.9465 -1,3 -2,5c-1,2 -4,5 -7,8c-3,3 -5.186,4.69255 -7,6c-1.14728,0.8269 -2.69345,1.4588 -4,2c-1.84775,0.76537 -3,1 -4,1l-1,0l-1,0" id="svg_17" stroke="#000" fill="#729C62"/>
  <path d="m367.5,186.5c-1,0 -2.87857,-0.49345 -6,-1c-0.98709,-0.16019 -2.4588,0.30656 -3,-1c-0.38269,-0.92387 -1.4588,-0.69344 -2,-2c-0.38269,-0.92387 -1,-2 -1,-3c0,-1 -1,-2 -1,-3c0,-2 0.07611,-2.61731 1,-3c1.30655,-0.5412 1,-2 2,-3c1,-1 2.02676,-1.77025 3,-2c2.17624,-0.51375 6.02676,-1.77025 7,-2c2.17624,-0.51375 4,-2 5,-2c1,0 2,0 3,0c1,0 5,0 8,0c3,0 5,0 6,0c2,0 2.29291,0.29289 3,1c0.70709,0.70711 1.07611,0.61731 2,1c1.30655,0.5412 1.61731,2.07613 2,3c0.5412,1.30656 1,2 1,3c0,1 0.4588,1.69344 1,3c0.38269,0.92387 0.70709,2.29289 0,3c-0.70709,0.70711 -1,1 -2,1c-1,0 -2,1 -3,1c-1,0 -2.07611,-0.38269 -3,0c-1.30655,0.5412 -2.15225,0.23463 -4,1c-1.30655,0.5412 -2,1 -3,1c-1,0 -2,0 -4,0c-1,0 -2,0 -4,0l-1,0l-1,0" id="svg_19" stroke="#000" fill="#FFFF91"/>
  <path d="m331.5,191.5c0,-1 1.70709,-1.29289 1,-2c-0.70709,-0.70711 -4.01291,-0.83981 -5,-1c-3.12143,-0.50655 -5,-1 -7,-1c-1,0 -2,0 -3,0c-1,0 -2.58578,-1.41422 -4,0c-0.70709,0.70711 -2.07611,2.61731 -3,3c-1.30655,0.5412 -0.61731,2.07613 -1,3c-0.5412,1.30656 -1,2 -1,3c0,1 0,2 0,3c0,2 0.22977,3.02675 0,4c-0.51373,2.17625 -3,3 -4,4c-1,1 -4,2 -6,2c-1,0 -3,-1 -3,0c0,3 7,0 14,0c8,0 15,0 16,0c1,0 2.07843,0.78986 5,2c4.13171,1.71141 5.82376,3.48625 8,4c1.9465,0.4595 3.87857,1.49345 7,2c4.93542,0.80092 10,0 14,0c3,0 6,0 8,0c1,0 3.02676,-1.77025 4,-2c2.17624,-0.51375 4.29291,-2.29289 5,-3c0.70709,-0.70711 0.85272,-1.1731 2,-2c1.814,-1.30745 2.48627,-1.82375 3,-4c0.22977,-0.97325 1,-2 1,-4l1,-1l0,-1" id="svg_20" stroke="#000" fill="#B1FFFF"/>
  <path d="m416.5,193.5c3,0 7,-1 12,-1c2,0 5,-1 7,-1c1,0 3.08026,-0.68925 6,0c4.35251,1.02748 6,3 8,4c2,1 4.41885,2.41885 6,4c1.58115,1.58115 2.69254,4.186 4,6c0.8269,1.14726 2.07611,1.61731 3,2c1.30655,0.5412 1.69345,2.4588 3,3c0.92389,0.38269 2,1 3,1c1,0 2,0 3,0c1,0 2,0 3,0c1,0 2.29291,0.70711 3,0c0.70709,-0.70711 0,-2 -1,-2c-1,0 -2,-1 -3,-1c-1,0 -2,0 -3,0c-1,0 -3.02676,0.22975 -4,0c-2.17624,-0.51375 -3,-1 -4,-1c-2,0 -4.88153,1.19028 -8,3c-1.93399,1.12234 -5.02582,2.67964 -7,3c-3.12143,0.50655 -4,2 -6,2c-2,0 -4,0 -5,0c-3,0 -5,0 -8,0c-4,0 -9.01691,0.0966 -15,-1c-5.01547,-0.91925 -8,-2 -12,-2c-1,0 -3.07611,-0.61731 -4,-1c-1.30655,-0.5412 -2.85272,-2.1731 -4,-3c-1.814,-1.30745 -5.186,-3.69255 -7,-5c-1.14728,-0.8269 -1.07611,-1.61731 -2,-2c-1.30655,-0.5412 -1.61731,-1.07613 -2,-2c-0.5412,-1.30656 -1,-2 -2,-2l-1,-1l0,-1l-1,0" id="svg_22" stroke="#000" fill="#FFAFCC"/>
  <path d="m364.5,217.5c1,1 -0.03146,2.41208 2,6c0.69678,1.23065 1.48627,2.82375 2,5c0.22977,0.97325 0,2 1,3c1,1 1.4588,1.69344 2,3c0.38269,0.92387 1.23462,3.15224 2,5c0.5412,1.30656 2.5405,3.0535 3,5c0.51373,2.17625 2.1731,2.85274 3,4c1.30746,1.814 0.94855,4.29869 2,6c1.17557,1.9021 3,3 3,4c0,1 1,2 2,4c1,2 3,4 4,8c1,4 2.33197,9.22937 4,13c1.45865,3.29733 2,6 3,8c1,2 1,3 1,5c0,2 0,5 0,7c0,5 0.49268,8.02432 0,13c-0.50244,5.07422 -2.69125,12.07181 -4,17c-1.62332,6.11267 -3.84723,11.04132 -5,15c-1.76828,6.07233 -3.44839,10.80566 -5,15c-1.43048,3.867 -1.33197,8.22937 -3,12c-1.45865,3.29733 -4.49622,7.90778 -5,12c-0.24435,1.98502 -1.49347,6.87857 -2,10c-0.64072,3.94836 0,8 0,11c0,4 0,6 0,10c0,4 0,9 0,13c0,3 0,4 0,5c0,1 0,2 0,3c0,1 0,2 0,3l0,1" id="svg_23" stroke="#000" fill="none"/>
  <path transform="rotate(-2.93118 316.581 329.497)" d="m245.5,336.5c1,-1 4.34944,-2.38458 10,-6c5.39359,-3.45099 12.17572,-8.60703 17,-11c5.22363,-2.59106 7.90778,-4.49622 12,-5c1.98502,-0.24435 6.133,-0.43048 10,1c8.3887,3.10318 16.95712,7.10892 27,11c7.96692,3.08676 10.71201,3.98163 16,5c6.87369,1.32376 15,0 22,0c6,0 11.93796,-0.49829 18,-1c3.98636,-0.32993 8,-2 10,-2c2,0 2.29291,-0.29291 3,-1c0.70709,-0.70709 -1,0 -3,0c-1,0 -4,0 -6,0c-1,0 -3,0 -4,0c-2,0 -4.01291,0.83981 -5,1c-3.12143,0.50653 -4.15225,1.23462 -6,2c-1.30655,0.5412 -2.14935,0.47427 -3,1c-1.9021,1.17557 -3,3 -5,4c-2,1 -3.186,1.69254 -5,3c-2.29453,1.65381 -4,3 -6,4c-2,1 -6.90778,1.49622 -11,2c-2.97751,0.36655 -7,0 -9,0c-3,0 -6,0 -7,0c-3,0 -7,-1 -10,-2c-3,-1 -4.01291,-0.83981 -5,-1c-3.12143,-0.50653 -10.25058,-1.89163 -17,-4c-2.13437,-0.66672 -4.797,-1.2565 -6,-2c-2.69,-1.66251 -8.15225,-0.23462 -10,-1c-1.30655,-0.5412 -2,-1 -3,-1c-1,0 -2,0 -5,0c-1,0 -3,0 -5,0c-3,0 -3.82375,0.48627 -6,1c-1.9465,0.4595 -2.69344,1.4588 -4,2c-0.92387,0.38269 -1.69344,0.4588 -3,1c-0.92387,0.38269 -2,1 -3,1l0,1l-1,0" id="svg_25" stroke="#000" fill="#396849"/>
  <path d="m403.5,309.49887c2,-1 7.90775,-2.49619 11.99997,-2.99997c3.97003,-0.48874 7,-1 9.99997,-1c2,0 4.11237,-0.45294 9,1c5.1619,1.53445 10.87,3.47342 20.99997,5.99997c4.94742,1.23395 11.1123,2.75101 17.99997,4c8.40686,1.52448 13.09659,3.53375 18.99994,5c6.13806,1.52454 15.00909,4.92984 23,5.99997c7.00842,0.93857 13.99994,2 21.99994,2c4,0 7,0 10,0c3.99994,0 7.88147,-0.19028 10.99994,-2c1.93402,-1.12234 4.18604,-1.69254 6,-2.99997c1.14728,-0.8269 2.70709,-1.29291 2,-2c-0.70709,-0.70709 -3.02673,-0.22977 -4,0c-2.17627,0.51373 -3.05353,1.5405 -5,2c-2.17627,0.51373 -4.02673,0.7702 -5,0.99997c-2.17627,0.51373 -2.87848,1.49347 -5.99994,2c-1.97418,0.32037 -3.69342,1.4588 -5,2c-2.77167,1.14804 -5.02246,1.63345 -8,2c-4.09222,0.50378 -5.82373,1.48627 -8,2c-0.97327,0.22977 -3,0 -7,0c-6.99997,0 -17.99994,0 -22.99994,0c-3,0 -7.99997,0 -13.99997,0c-3,0 -6,-1 -8.99997,-1c-3,0 -5.69345,-1.4588 -7,-2c-0.92389,-0.38269 -4.15927,-0.61066 -7,-2c-3.23889,-1.58411 -6.99997,-3.99997 -8.99997,-4.99997c-2,-1 -3.90634,-1.10339 -5,-2c-2.7883,-2.28586 -5.99997,-3 -8.99997,-4c-3,-1 -3.82376,-2.48627 -6,-3c-1.9465,-0.4595 -5.0784,-0.78986 -7.99997,-2c-2.06586,-0.85571 -4.07611,-0.61731 -5,-1c-1.30655,-0.5412 -2.29291,-0.29291 -3,-1c-0.70709,-0.70709 -2,-1 -3,-1c-1,0 -2,0 -2.99997,0c-2,0 -3,-1 -4,-1c-1,0 -2,0 -3,0c-2,0 -3,0 -5,0l-1,0l-1,0" id="svg_27" stroke="#000" fill="#153723"/>
 </g>
</svg>